<svg xmlns="http://www.w3.org/2000/svg" viewBox="0 0 512 512">
  <defs>
    <radialGradient id="bgGrad" cx="50%" cy="42%" r="60%">
      <stop offset="0%"   stop-color="#3D0D82"/>
      <stop offset="55%"  stop-color="#1A0545"/>
      <stop offset="100%" stop-color="#080015"/>
    </radialGradient>
    <!-- SWAPPED: now blue → magenta → purple -->
    <linearGradient id="arcGrad" x1="83" y1="340" x2="405" y2="106" gradientUnits="userSpaceOnUse">
      <stop offset="0%"   stop-color="#448AFF"/>
      <stop offset="50%"  stop-color="#E040FB"/>
      <stop offset="100%" stop-color="#AA00FF"/>
    </linearGradient>
    <radialGradient id="discGrad" cx="50%" cy="50%" r="50%">
      <stop offset="0%"   stop-color="#280A5E"/>
      <stop offset="100%" stop-color="#0E0028"/>
    </radialGradient>
    <!-- Bar chart – same palette as the speedo arc, applied horizontally -->
    <linearGradient id="barColorGrad" x1="120" y1="0" x2="368" y2="0" gradientUnits="userSpaceOnUse">
      <stop offset="0%"   stop-color="#448AFF"/>
      <stop offset="50%"  stop-color="#E040FB"/>
      <stop offset="100%" stop-color="#AA00FF"/>
    </linearGradient>
    <!-- Vertical depth sheen overlaid on each bar -->
    <linearGradient id="barDepth" x1="0" y1="0" x2="0" y2="1">
      <stop offset="0%"   stop-color="white" stop-opacity="0.18"/>
      <stop offset="35%"  stop-color="white" stop-opacity="0"/>
      <stop offset="100%" stop-color="black" stop-opacity="0.28"/>
    </linearGradient>
  </defs>

  <rect width="512" height="512" rx="108" fill="url(#bgGrad)"/>
  <circle cx="256" cy="240" r="220" fill="none" stroke="#3D1B7E" stroke-width="1" opacity="0.5"/>
  <path d="M 83 340 A 200 200 0 1 1 429 340"
        fill="none" stroke="#210A52" stroke-width="36" stroke-linecap="round"/>
  <path d="M 83 340 A 200 200 0 0 1 405 106"
        fill="none" stroke="url(#arcGrad)" stroke-width="36" stroke-linecap="round"/>
  <path d="M 83 340 A 200 200 0 0 1 405 106"
        fill="none" stroke="#82B1FF" stroke-width="6" stroke-linecap="round" opacity="0.25"/>

  <line x1="115" y1="322" x2="98"  y2="331" stroke="#5E35B1" stroke-width="5" stroke-linecap="round"/>
  <line x1="93"  y1="240" x2="74"  y2="240" stroke="#5E35B1" stroke-width="5" stroke-linecap="round"/>
  <line x1="115" y1="159" x2="98"  y2="149" stroke="#5E35B1" stroke-width="5" stroke-linecap="round"/>
  <line x1="175" y1="99"  x2="165" y2="82"  stroke="#9C27B0" stroke-width="5" stroke-linecap="round"/>
  <line x1="256" y1="77"  x2="256" y2="55"  stroke="#64B5F6" stroke-width="7" stroke-linecap="round"/>
  <line x1="338" y1="99"  x2="347" y2="82"  stroke="#64B5F6" stroke-width="5" stroke-linecap="round"/>
  <line x1="397" y1="159" x2="414" y2="149" stroke="#64B5F6" stroke-width="5" stroke-linecap="round"/>
  <line x1="419" y1="240" x2="438" y2="240" stroke="#64B5F6" stroke-width="5" stroke-linecap="round"/>
  <line x1="397" y1="322" x2="414" y2="331" stroke="#5E35B1" stroke-width="5" stroke-linecap="round"/>

  <circle cx="256" cy="240" r="144" fill="url(#discGrad)"/>
  <circle cx="256" cy="240" r="144" fill="none" stroke="#3D1F7A" stroke-width="1.5" opacity="0.8"/>
  <circle cx="256" cy="240" r="116" fill="none" stroke="#3D1B7E" stroke-width="1" opacity="0.4"/>

  <line x1="256" y1="240" x2="374" y2="133" stroke="white" stroke-width="10" stroke-linecap="round"/>
  <line x1="256" y1="240" x2="374" y2="133" stroke="#82B1FF" stroke-width="4"  stroke-linecap="round" opacity="0.4"/>

  <circle cx="256" cy="240" r="24" fill="#448AFF"/>
  <circle cx="256" cy="240" r="16" fill="#90CAF9"/>
  <circle cx="256" cy="240" r="8"  fill="white"/>

  <rect x="120" y="400" width="48" height="70"  rx="8" fill="url(#barColorGrad)"/>
  <rect x="184" y="365" width="48" height="105" rx="8" fill="url(#barColorGrad)"/>
  <rect x="252" y="382" width="48" height="88"  rx="8" fill="url(#barColorGrad)"/>
  <rect x="320" y="345" width="48" height="125" rx="8" fill="url(#barColorGrad)"/>

  <rect x="120" y="400" width="48" height="70"  rx="8" fill="url(#barDepth)"/>
  <rect x="184" y="365" width="48" height="105" rx="8" fill="url(#barDepth)"/>
  <rect x="252" y="382" width="48" height="88"  rx="8" fill="url(#barDepth)"/>
  <rect x="320" y="345" width="48" height="125" rx="8" fill="url(#barDepth)"/>

  <rect x="120" y="400" width="48" height="10" rx="8" fill="white" opacity="0.2"/>
  <rect x="184" y="365" width="48" height="10" rx="8" fill="white" opacity="0.2"/>
  <rect x="252" y="382" width="48" height="10" rx="8" fill="white" opacity="0.2"/>
  <rect x="320" y="345" width="48" height="10" rx="8" fill="white" opacity="0.2"/>
</svg>
